<?xml version="1.0" encoding="utf-8"?>
<!-- Generator: Adobe Illustrator 16.0.0, SVG Export Plug-In . SVG Version: 6.00 Build 0)  -->
<!DOCTYPE svg PUBLIC "-//W3C//DTD SVG 1.1//EN" "http://www.w3.org/Graphics/SVG/1.1/DTD/svg11.dtd">
<svg version="1.1" xmlns="http://www.w3.org/2000/svg" xmlns:xlink="http://www.w3.org/1999/xlink" x="0px" y="0px" width="1000px"
	 height="700px" viewBox="0 0 1000 700" enable-background="new 0 0 1000 700" xml:space="preserve">
<g id="Layer_1">
</g>
<g id="Layer_3" display="none">
	<text transform="matrix(1 0 0 1 367.5952 340.502)" display="inline"><tspan x="0" y="0" font-family="'Jalnan'" font-size="105">모아봐요</tspan><tspan x="0" y="126" font-family="'Jalnan'" font-size="105">보험의 숲</tspan></text>
</g>
<g id="Layer_2">
	<g>
		<g>
			<g>
				<defs>
					<rect id="SVGID_1_" x="178.451" y="236.093" width="219.604" height="219.605"/>
				</defs>
				<clipPath id="SVGID_2_">
					<use xlink:href="#SVGID_1_"  overflow="visible"/>
				</clipPath>
				<g clip-path="url(#SVGID_2_)">
					<defs>
						<rect id="SVGID_3_" x="178.451" y="236.093" width="219.604" height="219.605"/>
					</defs>
					<clipPath id="SVGID_4_">
						<use xlink:href="#SVGID_3_"  overflow="visible"/>
					</clipPath>
					<path clip-path="url(#SVGID_4_)" fill="#10BA00" d="M360.284,236.093l27.743,17.349l-38.723,50.729c0,0,16.031,0,27.304,6.954
						c11.273,6.954,14.641,13.762,17.642,27.597c3.001,13.835,7.394,31.44,0,57.133c-7.394,25.694-30.671,35.687-30.671,35.687
						s4.611-11.42,3.184-24.377c-1.427-12.956-5.929-18.117-12.078-22.948s-24.486-8.125-37.443-1.537s-16.58,14.933-18.227,26.792
						c-1.647,11.858,4.337,20.258,6.917,22.839c2.58,2.58,6.039,7.576,15.702,10.65s11.969,3.294,11.969,3.294
						s-19.765,9.443-52.815,9.443c-33.05,0-76.313-11.749-102.335-26.792c0,0,20.204-21.521,27.231-81.693
						c0,0,6.149-34.991,22.546-56.365c16.397-21.375,44.213-25.621,62.075-25.621s39.676,9.663,52.559,32.648L360.284,236.093z"/>
				</g>
			</g>
		</g>
		<g>
			<path fill="#0E8E00" d="M500.764,310.729c0.908,1.24,0.868,2.625-0.124,4.154c-0.992,1.531-3.1,3.081-6.324,4.65
				c-9.176,4.382-20.026,6.676-32.55,6.882c-12.524,0.208-22.424-1.426-29.698-4.898c-3.887-1.901-6.51-3.906-7.874-6.014
				c-1.364-2.108-1.55-4.03-0.558-5.766c1.073-1.9,3.079-3.017,6.014-3.348c2.933-0.33,7.046,0.248,12.338,1.736
				c5.952,1.655,11.861,2.812,17.732,3.472c0.082-1.157,0.082-2.375,0-3.658c-0.083-1.281-0.248-3.079-0.496-5.394
				c-0.167-1.569,0-2.831,0.496-3.782c0.496-0.95,1.364-1.507,2.604-1.674c1.24-0.165,2.334,0.146,3.286,0.93
				c0.949,0.787,1.755,2.129,2.418,4.03c1.157,3.308,1.777,6.655,1.86,10.044c5.869-0.082,11.861-0.785,17.98-2.108
				c3.72-0.825,6.572-1.197,8.556-1.116C498.408,308.953,499.853,309.573,500.764,310.729z M479.064,286.673
				c-0.083,0.415-0.642,1.054-1.674,1.922c-1.035,0.868-2.873,1.757-5.518,2.666c-6.448,2.15-12.008,2.852-16.678,2.108
				c-4.671-0.744-8.165-2.232-10.478-4.464c-3.06-2.893-5.188-6.82-6.386-11.78c-1.199-4.96-1.592-10.705-1.178-17.236
				c0.165-2.976,0.701-5.187,1.612-6.634c0.909-1.445,2.189-2.17,3.844-2.17c1.24,0,2.356,0.372,3.348,1.116
				c0.992,0.744,1.653,1.364,1.984,1.86c1.073-0.33,2.769-0.577,5.084-0.744c6.2-0.496,11.532-0.453,15.996,0.124
				c4.464,0.58,7.77,1.819,9.92,3.72c2.809,2.398,4.442,5.518,4.898,9.362c0.453,3.844,0.434,7.545-0.062,11.098
				c-0.415,2.976-1.035,5.126-1.86,6.448C481.088,285.393,480.137,286.261,479.064,286.673z M451.784,263.981
				c0.992,6.944,1.839,11.284,2.542,13.02c0.702,1.736,1.674,2.976,2.914,3.72c1.321,0.827,3.987,0.992,7.998,0.496
				c4.009-0.496,6.551-0.62,7.626-0.372c-0.083-1.24-0.042-2.604,0.124-4.092c0.329-3.472,0.268-6.489-0.186-9.052
				c-0.455-2.562-1.469-4.464-3.038-5.704c-1.323-0.992-3.391-1.612-6.2-1.86c-2.812-0.248-5.704-0.248-8.68,0
				c-1.571,0.083-2.895-0.041-3.968-0.372C451.245,261.089,451.536,262.494,451.784,263.981z"/>
			<path fill="#0E8E00" d="M529.531,305.77c-6.035-0.082-10.459-1.984-13.268-5.704c-2.812-3.72-3.844-8.225-3.1-13.516
				c0.576-4.132,2.231-7.17,4.959-9.114c2.729-1.941,5.745-2.955,9.053-3.038c4.297-0.082,8.225,1.097,11.779,3.534
				c3.554,2.439,5.332,6.429,5.332,11.966c0,4.135-1.363,7.833-4.092,11.098C537.468,304.262,533.912,305.853,529.531,305.77z
				 M528.539,295.478c1.818,0,3.451-0.785,4.898-2.356c1.445-1.569,2.087-3.306,1.922-5.208c-0.248-2.48-1.199-4.278-2.852-5.394
				c-1.654-1.116-3.268-1.674-4.836-1.674c-1.488,0-2.936,0.558-4.34,1.674c-1.407,1.116-2.191,2.584-2.356,4.402
				c-0.248,2.399,0.31,4.423,1.674,6.076C524.014,294.652,525.977,295.478,528.539,295.478z M584.836,282.83
				c0.66-0.248,1.674-0.496,3.039-0.744c1.363-0.248,2.994-0.413,4.896-0.496c3.225-0.081,6.777,0.043,10.664,0.372
				c3.885,0.332,6.201,0.992,6.945,1.984c1.072,1.407,0.08,2.874-2.977,4.402c-3.059,1.53-6.076,2.294-9.053,2.294
				c-2.975,0-5.498-0.206-7.564-0.62c-2.066-0.413-3.555-0.785-4.463-1.116c1.404,7.607,0.867,15.128-1.611,22.568
				c-0.912,2.728-2.523,4.898-4.836,6.51c-2.316,1.612-4.797,2.213-7.441,1.798c-3.471-0.496-5.643-2.418-6.51-5.766
				c-0.868-3.348-1.055-7.13-0.559-11.346c0.578-4.628,0.683-10.292,0.311-16.988c-0.372-6.696-1.965-14.341-4.774-22.94
				c-0.495-1.405-0.849-2.976-1.054-4.712c-0.207-1.736,0.268-2.976,1.426-3.72c1.24-0.744,2.748-0.64,4.526,0.31
				c1.776,0.951,3.575,2.377,5.394,4.278C577.396,265.594,581.941,273.572,584.836,282.83z"/>
			<path fill="#0E8E00" d="M631.086,308.994c3.801,0.415,8.68,0.827,14.633,1.24c0-0.413-0.063-1.259-0.188-2.542
				c-0.123-1.281-0.434-3.119-0.93-5.518c-0.248-1.157-0.309-2.313-0.186-3.472c0.125-1.157,0.807-1.941,2.047-2.356
				c0.992-0.33,2.002-0.206,3.037,0.372c1.033,0.58,1.922,1.448,2.666,2.604c1.156,1.819,1.922,3.68,2.295,5.58
				c0.371,1.903,0.516,3.72,0.434,5.456c4.381-0.081,8.68-0.496,12.896-1.24c2.148-0.413,3.967-0.682,5.455-0.806
				s2.645,0.229,3.473,1.054c0.66,0.663,0.701,1.819,0.123,3.472c-0.578,1.655-2.15,3.308-4.711,4.96
				c-6.367,4.216-14.508,6.739-24.428,7.564c-9.922,0.828-17.775-0.329-23.561-3.472c-2.729-1.488-4.547-3.244-5.457-5.27
				c-0.91-2.025-0.91-3.863,0-5.518c0.744-1.405,2.17-2.211,4.279-2.418C625.072,308.478,627.779,308.581,631.086,308.994z
				 M636.418,263.857c1.9-1.24,4.029-1.55,6.387-0.93c2.355,0.62,4.277,0.972,5.766,1.054c2.645,0.167,4.711,0.208,6.199,0.124
				c1.488-0.082,2.605-0.041,3.35,0.124c-0.58-2.976-1.16-6.2-1.736-9.672c-0.248-1.321-0.168-2.542,0.248-3.658
				c0.412-1.116,1.24-1.838,2.479-2.17c0.992-0.248,1.902-0.103,2.729,0.434c0.826,0.539,1.777,1.84,2.852,3.906
				c1.818,3.472,3.018,7.669,3.598,12.586c0.576,4.919-0.621,9.858-3.598,14.818c-0.91,1.488-1.756,2.563-2.541,3.224
				c-0.787,0.663-1.346,1.076-1.674,1.24c-0.828,1.488-2.027,2.852-3.596,4.092c-3.557,2.976-8.02,4.485-13.393,4.526
				c-5.375,0.042-9.92-1.674-13.641-5.146c-2.479-2.313-4.361-5.6-5.641-9.858c-1.283-4.256-1.842-9.982-1.676-17.174
				c0.082-4.712,0.6-8.327,1.551-10.85c0.949-2.521,2.295-3.946,4.029-4.278c1.406-0.248,2.729,0.124,3.969,1.116
				c1.24,0.992,2.148,3.019,2.729,6.076c0.412,2.151,0.744,4.175,0.992,6.076C636.047,261.42,636.252,262.866,636.418,263.857z
				 M658.861,268.445c-0.742,0.496-2.832,1.116-6.262,1.86c-3.432,0.744-6.717,0.744-9.857,0c-2.314-0.578-4.217-1.529-5.703-2.852
				c0.824,5.871,2.666,9.9,5.518,12.09c2.852,2.191,5.971,3.081,9.361,2.666c2.148-0.248,4.092-0.661,5.828-1.24
				c0.412-1.984,0.764-4.03,1.055-6.138C659.09,272.724,659.109,270.596,658.861,268.445z M701.395,287.169
				c4.959-0.825,9.133-1.116,12.523-0.868c2.232,0.167,4.029,0.62,5.395,1.364c1.363,0.744,2.004,1.612,1.922,2.604
				c-0.084,1.407-1.115,2.46-3.1,3.162c-1.984,0.703-4.424,1.054-7.316,1.054c-1.324,0-2.832-0.103-4.525-0.31
				c-1.695-0.205-3.121-0.391-4.279-0.558c0.248,5.291-0.123,11.036-1.115,17.236c-0.744,4.547-2.254,7.73-4.525,9.548
				c-2.275,1.819-4.818,2.275-7.627,1.364c-2.646-0.826-4.754-2.562-6.324-5.208c-1.57-2.645-2.107-5.91-1.611-9.796
				c1.156-8.762,1.652-16.264,1.488-22.506c-0.168-6.241-1.16-12.791-2.977-19.654c-0.992-3.637-1.324-6.095-0.992-7.378
				c0.33-1.281,1.033-2.087,2.107-2.418c1.322-0.413,2.77-0.206,4.34,0.62c1.57,0.828,3.307,2.48,5.209,4.96
				C696.186,268.653,699.988,277.581,701.395,287.169z"/>
			<path fill="#0E8E00" d="M805.801,310.729c0.908,1.24,0.867,2.625-0.125,4.154c-0.992,1.531-3.1,3.081-6.324,4.65
				c-9.176,4.382-20.025,6.676-32.549,6.882c-12.523,0.208-22.426-1.426-29.699-4.898c-3.887-1.901-6.51-3.906-7.873-6.014
				s-1.551-4.03-0.559-5.766c1.074-1.9,3.08-3.017,6.014-3.348c2.934-0.33,7.047,0.248,12.338,1.736
				c3.143,0.911,6.283,1.655,9.426,2.232c-0.416-0.744-1.076-2.623-1.984-5.642c-0.91-3.017-1.654-6.262-2.232-9.734
				c-0.332-1.9-0.393-3.491-0.186-4.774c0.205-1.281,0.639-2.087,1.301-2.418c1.488-0.744,3.266-0.454,5.332,0.868
				c2.066,1.323,3.721,3.143,4.961,5.456c1.24,2.315,2.127,4.755,2.666,7.316c0.537,2.563,0.807,5.25,0.807,8.06
				c0,0.827-0.043,1.571-0.125,2.232c8.762,0.744,17.4,0.167,25.916-1.736c3.721-0.825,6.572-1.197,8.557-1.116
				C803.445,308.953,804.891,309.573,805.801,310.729z M750.496,269.189c-0.084-5.537,1.57-9.734,4.961-12.586
				c3.389-2.852,7.314-4.319,11.779-4.402c3.801-0.082,7.336,1.283,10.602,4.092c3.266,2.812,4.775,7.111,4.527,12.896
				c-0.168,3.887-1.635,7.13-4.402,9.734c-2.771,2.604-5.934,4.113-9.486,4.526c-4.547,0.496-8.66-0.475-12.338-2.914
				C752.459,278.098,750.578,274.316,750.496,269.189z M758.805,267.578c0.082,2.48,0.867,4.237,2.355,5.27
				c1.488,1.035,3.018,1.509,4.588,1.426c2.232-0.082,4.01-0.785,5.332-2.108c1.322-1.321,2.025-2.976,2.107-4.96
				c0.082-2.48-0.619-4.34-2.107-5.58c-1.488-1.24-2.977-1.817-4.463-1.736c-2.564,0.167-4.527,1.013-5.891,2.542
				C759.363,263.962,758.721,265.677,758.805,267.578z M777.281,310.233c-1.076-0.081-1.779-0.639-2.109-1.674
				c-0.33-1.033-0.371-2.666-0.123-4.898c0.328-2.149,0.537-4.877,0.619-8.184c0.082-3.389,0.516-5.642,1.303-6.758
				c0.785-1.116,1.631-1.674,2.541-1.674c1.322,0,2.336,0.58,3.039,1.736c0.701,1.158,1.135,2.646,1.301,4.464
				c0.166,1.654,0.207,3.472,0.125,5.456c-0.084,1.984-0.373,3.968-0.869,5.952c-0.494,2.067-1.363,3.534-2.604,4.402
				C779.264,309.923,778.189,310.317,777.281,310.233z"/>
			<path fill="#0E8E00" d="M500.764,430.729c0.908,1.24,0.868,2.626-0.124,4.153c-0.992,1.531-3.1,3.082-6.324,4.65
				c-9.176,4.383-20.026,6.677-32.55,6.883c-12.524,0.207-22.424-1.426-29.698-4.898c-3.887-1.9-6.51-3.906-7.874-6.014
				c-1.364-2.108-1.55-4.03-0.558-5.767c1.073-1.9,3.079-3.017,6.014-3.348c2.933-0.329,7.046,0.248,12.338,1.735
				c5.952,1.655,11.861,2.813,17.732,3.473c0.082-1.156,0.082-2.375,0-3.658c-0.083-1.281-0.248-3.078-0.496-5.395
				c-0.167-1.568,0-2.83,0.496-3.781c0.496-0.949,1.364-1.508,2.604-1.674c1.24-0.165,2.334,0.145,3.286,0.93
				c0.949,0.787,1.755,2.129,2.418,4.029c1.157,3.309,1.777,6.656,1.86,10.045c5.869-0.082,11.861-0.785,17.98-2.108
				c3.72-0.825,6.572-1.197,8.556-1.116C498.408,428.953,499.853,429.572,500.764,430.729z M450.668,387.453
				c2.728-0.081,6.51-0.041,11.346,0.125s9.071,0.29,12.71,0.371c-0.083-2.809-0.331-5.621-0.744-8.432
				c-0.415-3.141-0.434-5.373-0.062-6.696c0.372-1.321,1.178-2.065,2.418-2.231c2.148-0.248,4.049,0.786,5.704,3.1
				c1.653,2.315,2.645,5.787,2.976,10.416c0.33,5.208,0.062,9.9-0.806,14.074c-0.868,4.176-1.922,7.254-3.162,9.238
				c-1.571,2.479-3.122,3.803-4.65,3.968c-1.531,0.167-2.625-0.124-3.286-0.868c-4.631,3.307-9.982,4.692-16.058,4.154
				c-6.076-0.537-10.974-2.831-14.694-6.883c-2.647-2.893-4.485-6.839-5.518-11.842c-1.035-5-1.137-10.188-0.31-15.562
				c0.661-4.464,1.755-7.75,3.286-9.858c1.529-2.107,3.575-2.914,6.138-2.418c1.817,0.332,3.182,1.633,4.092,3.906
				c0.909,2.274,1.157,6.181,0.744,11.718C450.708,385.057,450.668,386.297,450.668,387.453z M474.724,393.033
				c-3.639,0.663-7.668,1.138-12.09,1.426c-4.423,0.291-8.289,0.105-11.594-0.558c0.165,1.571,0.785,3.452,1.86,5.642
				c1.073,2.191,2.645,3.783,4.712,4.774c2.396,1.159,5.208,1.386,8.432,0.683c3.224-0.701,5.745-1.756,7.564-3.162
				C474.352,399.854,474.724,396.92,474.724,393.033z"/>
			<path fill="#0E8E00" d="M522.092,388.569c3.472,0.331,6.84,0.435,10.105,0.31c3.266-0.123,6.635-0.391,10.106-0.805
				c4.05-0.414,7.108-0.516,9.176-0.311c2.065,0.207,3.265,0.849,3.597,1.922c0.328,1.075-0.248,2.315-1.736,3.72
				c-1.488,1.407-4.176,2.647-8.061,3.72c-6.035,1.655-11.842,2.502-17.422,2.543c-5.58,0.042-10.148-0.848-13.701-2.666
				c-2.564-1.322-4.279-2.748-5.146-4.278c-0.868-1.528-0.93-2.79-0.186-3.782c0.66-0.825,1.735-1.219,3.223-1.178
				C513.535,387.807,516.884,388.074,522.092,388.569z M537.84,403.449c0.329,0.167,0.577,0.372,0.744,0.62
				c0.992,0,2.045,0.124,3.162,0.372c1.115,0.248,2.17,0.62,3.162,1.116c2.064,1.075,3.637,2.604,4.711,4.588
				s1.57,4.216,1.488,6.696c-0.083,3.72-1.323,6.862-3.72,9.424c-2.399,2.563-5.456,3.844-9.177,3.844
				c-4.711,0.084-8.432-1.197-11.159-3.844c-2.728-2.645-4.052-5.992-3.968-10.044c0.081-2.976,0.784-5.58,2.107-7.812
				c1.321-2.232,3.513-3.885,6.572-4.961c1.156-0.412,2.334-0.599,3.533-0.558C536.495,402.934,537.344,403.12,537.84,403.449z
				 M538.955,385.47c-1.158,0.247-2.604,0.104-4.34-0.435c-1.736-0.536-3.266-1.631-4.588-3.285
				c-1.654-1.984-2.728-4.298-3.224-6.944c-0.496-2.646-0.663-5.456-0.496-8.433c0.165-2.479,0.763-4.73,1.798-6.758
				c1.033-2.024,2.666-2.707,4.898-2.046c1.404,0.496,2.623,1.488,3.658,2.976c1.032,1.488,1.715,2.895,2.045,4.217
				c0.496,1.902,0.992,4.051,1.488,6.447c0.496,2.398,0.909,4.672,1.24,6.82c0.412,2.563,0.434,4.383,0.063,5.456
				C541.125,384.561,540.277,385.222,538.955,385.47z M537.22,409.277c-0.663,0.084-1.757,0.559-3.286,1.426
				c-1.531,0.868-2.418,2.13-2.666,3.782c-0.248,1.736,0.144,3.224,1.178,4.464c1.033,1.24,2.666,1.86,4.898,1.86
				c1.404-0.081,2.582-0.661,3.533-1.735c0.95-1.074,1.384-2.397,1.303-3.969c-0.084-1.073-0.434-2.046-1.055-2.914
				c-0.619-0.867-1.426-1.55-2.418-2.046C538.129,409.897,537.633,409.609,537.22,409.277z M576.279,458.133
				c-0.826,0.248-1.818,0.496-2.975,0.744c-2.977,0.661-6.367,0.931-10.169,0.807c-3.804-0.124-6.614-1.014-8.433-2.666
				c-1.406-1.321-2.479-3.367-3.224-6.139c-0.744-2.768-1.159-6.055-1.239-9.857c-0.084-2.81,0.288-4.836,1.115-6.076
				c0.826-1.24,2.025-1.776,3.596-1.611c2.066,0.166,3.678,1.074,4.836,2.728c2.645-0.248,5.953-0.413,9.922-0.496
				c3.967-0.081,6.9,0.579,8.803,1.983c1.9,1.407,3.039,3.535,3.41,6.387c0.373,2.852,0.434,5.518,0.186,7.998
				s-0.744,4.154-1.488,5.021c-0.742,0.869-1.529,1.344-2.355,1.426C577.686,458.463,577.023,458.381,576.279,458.133z
				 M565.863,408.533c-2.728,0.167-5.167-0.143-7.316-0.93c-2.15-0.785-3.307-1.839-3.471-3.162
				c-0.084-0.825,0.288-1.674,1.115-2.542c0.826-0.868,2.562-1.507,5.208-1.922c2.479-0.413,4.855-0.683,7.13-0.806
				c2.273-0.125,4.32-0.187,6.139-0.187c-0.084-8.265-1.322-16.284-3.721-24.056c-0.662-2.232-1.033-4.03-1.115-5.395
				c-0.084-1.363,0.33-2.418,1.24-3.162c0.744-0.577,1.941-0.639,3.596-0.186c1.652,0.455,3.678,1.922,6.076,4.402
				c5.289,5.455,9.279,12.09,11.967,19.902c2.684,7.812,3.574,15.645,2.666,23.498c-0.828,6.861-2.4,11.574-4.713,14.135
				c-2.314,2.564-5.168,3.639-8.557,3.225c-3.391-0.412-5.703-1.859-6.943-4.34s-1.531-7.357-0.867-14.633
				c0.164-1.9,0.287-3.885,0.371-5.951C571.361,407.666,568.426,408.369,565.863,408.533z M561.399,441.766
				c0.081,1.654,0.165,3.328,0.248,5.021c0.081,1.695,0.496,3.039,1.24,4.03c0.661,0.911,1.86,1.469,3.597,1.675
				c1.736,0.207,4.215,0.062,7.439-0.435c-0.084-1.736-0.207-3.597-0.371-5.58c-0.168-1.983-0.787-3.349-1.861-4.092
				c-1.074-0.744-2.688-1.054-4.836-0.931C564.705,441.58,562.888,441.684,561.399,441.766z"/>
			<path fill="#0E8E00" d="M620.67,424.901c7.605,2.479,14.961,3.184,22.072,2.108c7.109-1.074,12.4-2.232,15.871-3.473
				c2.645-0.908,4.527-1.156,5.643-0.744c1.115,0.415,1.84,0.992,2.17,1.736c0.496,1.24,0.248,2.625-0.744,4.154
				c-0.992,1.531-2.521,2.997-4.588,4.402c-7.605,5.043-15.623,8.06-24.057,9.052c-8.432,0.991-15.789-0.041-22.07-3.101
				c-3.143-1.488-5.479-3.574-7.006-6.262c-1.531-2.686-1.635-5.063-0.311-7.13c0.992-1.487,2.83-2.17,5.518-2.046
				C615.854,423.724,618.355,424.158,620.67,424.901z M633.938,377.905c4.217,0.248,7.584,1.841,10.107,4.774
				c2.52,2.936,3.904,6.181,4.152,9.734c0.248,4.051-0.805,7.585-3.162,10.602c-2.355,3.019-6.014,4.485-10.973,4.402
				c-3.557-0.082-6.82-1.303-9.797-3.658c-2.975-2.356-4.631-5.724-4.959-10.106c-0.332-3.968,0.887-7.646,3.658-11.036
				C625.732,379.229,629.391,377.658,633.938,377.905z M633.814,385.346c-2.068-0.165-3.68,0.496-4.836,1.984
				c-1.158,1.487-1.695,3.143-1.613,4.959c0.082,1.82,0.744,3.246,1.984,4.278c1.24,1.034,2.645,1.593,4.217,1.675
				c1.984,0.082,3.512-0.454,4.588-1.613c1.072-1.156,1.568-2.728,1.488-4.711c-0.084-1.488-0.664-2.914-1.736-4.278
				C636.83,386.275,635.467,385.512,633.814,385.346z M693.211,425.521c-0.332,4.464-1.758,8.618-4.279,12.462
				c-2.521,3.845-5.518,5.437-8.99,4.774c-2.811-0.496-5.002-2.232-6.572-5.209c-1.57-2.975-2.15-5.951-1.734-8.928
				c1.24-9.588,1.426-18.104,0.557-25.543c-0.867-7.44-2.541-14.509-5.021-21.205c-0.496-1.32-0.682-2.541-0.559-3.658
				c0.125-1.115,0.6-1.838,1.426-2.17c1.57-0.66,3.018-0.682,4.342-0.062c1.32,0.62,2.645,1.593,3.967,2.914
				c5.621,5.788,10.002,12.524,13.145,20.212C692.631,406.797,693.871,415.602,693.211,425.521z"/>
			<path fill="#0E8E00" d="M784.1,425.025c0.248,0.992,0.414,2.17,0.496,3.534s0.082,2.666,0,3.905
				c-0.166,1.903-0.557,3.349-1.178,4.341c-0.619,0.991-1.385,1.53-2.293,1.612c-1.572,0.166-2.957-0.311-4.154-1.426
				c-1.199-1.117-1.922-2.624-2.17-4.527c-0.248-1.816-0.373-3.242-0.373-4.277c0-1.033,0.041-2.046,0.125-3.038
				c-12.07-0.744-21.742-2.645-29.016-5.704c-2.646-1.073-4.424-2.355-5.332-3.844c-0.912-1.488-1.158-3.017-0.744-4.588
				c0.412-1.488,1.467-2.48,3.162-2.977c1.693-0.496,4.111-0.288,7.254,0.621c7.852,2.15,16.346,3.121,25.482,2.913
				c9.133-0.205,16.758-1.591,22.877-4.153c3.721-1.488,7.418-2.148,11.098-1.984c3.678,0.166,6.096,0.992,7.254,2.48
				c1.406,1.902,1.322,4.01-0.248,6.323c-1.57,2.315-4.631,4.3-9.176,5.952C799.807,422.918,792.117,424.529,784.1,425.025z
				 M768.229,398.242c-1.324,2.646-3.08,4.484-5.27,5.518c-2.191,1.034-4.238,1.178-6.139,0.434
				c-3.059-1.24-4.836-3.761-5.332-7.564c-0.496-3.801-0.123-7.645,1.117-11.531c1.404-4.381,3.348-8.432,5.826-12.152
				c2.48-3.72,4.918-6.82,7.316-9.3c2.232-2.231,3.906-3.575,5.023-4.03c1.115-0.453,2.17-0.599,3.16-0.434
				c1.24,0.248,2.109,1.054,2.605,2.418c0.496,1.363,0.66,2.957,0.496,4.773c-0.248,2.316-0.621,4.321-1.117,6.015
				c-0.496,1.695-1.199,3.824-2.107,6.386c-0.828,2.398-1.736,5.787-2.729,10.168C770.088,393.324,769.137,396.424,768.229,398.242z
				 M760.045,444.617c0-1.321,0.537-2.334,1.611-3.037c1.074-0.702,2.811-1.136,5.209-1.303c2.727-0.164,6.881,0.063,12.461,0.682
				c5.58,0.621,10.188,1.221,13.826,1.799c2.645,0.414,4.443,0.973,5.395,1.674c0.949,0.703,1.26,1.758,0.93,3.162
				c-0.332,1.323-1.344,2.355-3.037,3.1c-1.695,0.744-3.742,1.199-6.139,1.364c0.082,3.968,0,7.397-0.248,10.292
				c0.908,0,1.9-0.043,2.977-0.124c2.727-0.167,4.525,0,5.393,0.496c0.869,0.496,1.26,1.24,1.178,2.231
				c-0.082,1.157-1.074,2.149-2.975,2.977c-1.902,0.825-4.383,1.445-7.441,1.859c-3.885,0.496-7.502,0.723-10.85,0.683
				c-3.348-0.043-6.385-0.311-9.113-0.807c-2.729-0.495-4.773-1.239-6.139-2.231c-1.363-0.992-2.045-2.108-2.045-3.348
				c0-1.24,0.701-2.089,2.107-2.542c1.404-0.456,4.133-0.478,8.184-0.063c-0.578-0.496-0.973-2.089-1.178-4.774
				c-0.207-2.686-0.229-4.69-0.063-6.014c-2.975-0.329-5.393-1.054-7.254-2.17C760.975,447.408,760.045,446.105,760.045,444.617z
				 M783.357,451.934c-2.4-0.082-4.961-0.248-7.689-0.496c0.166,0.662,0.289,1.674,0.373,3.038c0.08,1.364,0.08,2.499,0,3.41
				c-0.248,1.983-0.91,3.265-1.984,3.844c3.473,0.329,6.572,0.537,9.301,0.62C782.861,459.042,782.861,455.572,783.357,451.934z
				 M775.297,383.237c0-0.825,0.311-1.466,0.93-1.922c0.619-0.453,1.799-0.599,3.533-0.435c2.563,0.248,5.477,0.85,8.742,1.799
				c3.266,0.951,5.891,1.922,7.875,2.914c2.232,1.158,3.738,2.294,4.525,3.41c0.785,1.115,1.055,2.129,0.807,3.037
				c-0.168,0.744-0.744,1.346-1.736,1.799c-0.992,0.455-2.563,0.558-4.713,0.31c-1.902-0.248-4.195-0.825-6.881-1.735
				c-2.688-0.909-5.189-2.025-7.502-3.349c-1.654-0.909-2.998-1.88-4.031-2.914C775.813,385.119,775.297,384.148,775.297,383.237z"
				/>
		</g>
		<g>
			<path fill="#10BA00" d="M500.764,306.231c0.908,1.24,0.868,2.625-0.124,4.154c-0.992,1.531-3.1,3.081-6.324,4.65
				c-9.176,4.382-20.026,6.676-32.55,6.882c-12.524,0.208-22.424-1.426-29.698-4.898c-3.887-1.901-6.51-3.906-7.874-6.014
				c-1.364-2.108-1.55-4.03-0.558-5.766c1.073-1.9,3.079-3.017,6.014-3.348c2.933-0.33,7.046,0.248,12.338,1.736
				c5.952,1.655,11.861,2.812,17.732,3.472c0.082-1.157,0.082-2.375,0-3.658c-0.083-1.281-0.248-3.079-0.496-5.394
				c-0.167-1.569,0-2.831,0.496-3.782c0.496-0.95,1.364-1.507,2.604-1.674c1.24-0.165,2.334,0.146,3.286,0.93
				c0.949,0.787,1.755,2.129,2.418,4.03c1.157,3.308,1.777,6.655,1.86,10.044c5.869-0.082,11.861-0.785,17.98-2.108
				c3.72-0.825,6.572-1.197,8.556-1.116C498.408,304.454,499.853,305.074,500.764,306.231z M479.064,282.175
				c-0.083,0.415-0.642,1.054-1.674,1.922c-1.035,0.868-2.873,1.757-5.518,2.666c-6.448,2.15-12.008,2.852-16.678,2.108
				c-4.671-0.744-8.165-2.232-10.478-4.464c-3.06-2.893-5.188-6.82-6.386-11.78c-1.199-4.96-1.592-10.705-1.178-17.236
				c0.165-2.976,0.701-5.187,1.612-6.634c0.909-1.445,2.189-2.17,3.844-2.17c1.24,0,2.356,0.372,3.348,1.116
				c0.992,0.744,1.653,1.364,1.984,1.86c1.073-0.33,2.769-0.577,5.084-0.744c6.2-0.496,11.532-0.453,15.996,0.124
				c4.464,0.58,7.77,1.819,9.92,3.72c2.809,2.398,4.442,5.518,4.898,9.362c0.453,3.844,0.434,7.545-0.062,11.098
				c-0.415,2.976-1.035,5.126-1.86,6.448C481.088,280.894,480.137,281.762,479.064,282.175z M451.784,259.483
				c0.992,6.944,1.839,11.284,2.542,13.02c0.702,1.736,1.674,2.976,2.914,3.72c1.321,0.827,3.987,0.992,7.998,0.496
				c4.009-0.496,6.551-0.62,7.626-0.372c-0.083-1.24-0.042-2.604,0.124-4.092c0.329-3.472,0.268-6.489-0.186-9.052
				c-0.455-2.562-1.469-4.464-3.038-5.704c-1.323-0.992-3.391-1.612-6.2-1.86c-2.812-0.248-5.704-0.248-8.68,0
				c-1.571,0.083-2.895-0.041-3.968-0.372C451.245,256.59,451.536,257.995,451.784,259.483z"/>
			<path fill="#10BA00" d="M529.531,301.271c-6.035-0.082-10.459-1.984-13.268-5.704c-2.812-3.72-3.844-8.225-3.1-13.516
				c0.576-4.132,2.231-7.17,4.959-9.114c2.729-1.941,5.745-2.955,9.053-3.038c4.297-0.082,8.225,1.097,11.779,3.534
				c3.554,2.439,5.332,6.429,5.332,11.966c0,4.135-1.363,7.833-4.092,11.098C537.468,299.764,533.912,301.354,529.531,301.271z
				 M528.539,290.979c1.818,0,3.451-0.785,4.898-2.356c1.445-1.569,2.087-3.306,1.922-5.208c-0.248-2.48-1.199-4.278-2.852-5.394
				c-1.654-1.116-3.268-1.674-4.836-1.674c-1.488,0-2.936,0.558-4.34,1.674c-1.407,1.116-2.191,2.584-2.356,4.402
				c-0.248,2.399,0.31,4.423,1.674,6.076C524.014,290.154,525.977,290.979,528.539,290.979z M584.836,278.331
				c0.66-0.248,1.674-0.496,3.039-0.744c1.363-0.248,2.994-0.413,4.896-0.496c3.225-0.081,6.777,0.043,10.664,0.372
				c3.885,0.332,6.201,0.992,6.945,1.984c1.072,1.407,0.08,2.874-2.977,4.402c-3.059,1.53-6.076,2.294-9.053,2.294
				c-2.975,0-5.498-0.206-7.564-0.62c-2.066-0.413-3.555-0.785-4.463-1.116c1.404,7.607,0.867,15.128-1.611,22.568
				c-0.912,2.728-2.523,4.898-4.836,6.51c-2.316,1.612-4.797,2.213-7.441,1.798c-3.471-0.496-5.643-2.418-6.51-5.766
				c-0.868-3.348-1.055-7.13-0.559-11.346c0.578-4.628,0.683-10.292,0.311-16.988c-0.372-6.696-1.965-14.341-4.774-22.94
				c-0.495-1.405-0.849-2.976-1.054-4.712c-0.207-1.736,0.268-2.976,1.426-3.72c1.24-0.744,2.748-0.64,4.526,0.31
				c1.776,0.951,3.575,2.377,5.394,4.278C577.396,261.095,581.941,269.074,584.836,278.331z"/>
			<path fill="#10BA00" d="M631.086,304.495c3.801,0.415,8.68,0.827,14.633,1.24c0-0.413-0.063-1.259-0.188-2.542
				c-0.123-1.281-0.434-3.119-0.93-5.518c-0.248-1.157-0.309-2.313-0.186-3.472c0.125-1.157,0.807-1.941,2.047-2.356
				c0.992-0.33,2.002-0.206,3.037,0.372c1.033,0.58,1.922,1.448,2.666,2.604c1.156,1.819,1.922,3.68,2.295,5.58
				c0.371,1.903,0.516,3.72,0.434,5.456c4.381-0.081,8.68-0.496,12.896-1.24c2.148-0.413,3.967-0.682,5.455-0.806
				s2.645,0.229,3.473,1.054c0.66,0.663,0.701,1.819,0.123,3.472c-0.578,1.655-2.15,3.308-4.711,4.96
				c-6.367,4.216-14.508,6.739-24.428,7.564c-9.922,0.828-17.775-0.329-23.561-3.472c-2.729-1.488-4.547-3.244-5.457-5.27
				c-0.91-2.025-0.91-3.863,0-5.518c0.744-1.405,2.17-2.211,4.279-2.418C625.072,303.979,627.779,304.083,631.086,304.495z
				 M636.418,259.359c1.9-1.24,4.029-1.55,6.387-0.93c2.355,0.62,4.277,0.972,5.766,1.054c2.645,0.167,4.711,0.208,6.199,0.124
				c1.488-0.082,2.605-0.041,3.35,0.124c-0.58-2.976-1.16-6.2-1.736-9.672c-0.248-1.321-0.168-2.542,0.248-3.658
				c0.412-1.116,1.24-1.838,2.479-2.17c0.992-0.248,1.902-0.103,2.729,0.434c0.826,0.539,1.777,1.84,2.852,3.906
				c1.818,3.472,3.018,7.669,3.598,12.586c0.576,4.919-0.621,9.858-3.598,14.818c-0.91,1.488-1.756,2.563-2.541,3.224
				c-0.787,0.663-1.346,1.076-1.674,1.24c-0.828,1.488-2.027,2.852-3.596,4.092c-3.557,2.976-8.02,4.485-13.393,4.526
				c-5.375,0.042-9.92-1.674-13.641-5.146c-2.479-2.313-4.361-5.6-5.641-9.858c-1.283-4.256-1.842-9.982-1.676-17.174
				c0.082-4.712,0.6-8.327,1.551-10.85c0.949-2.521,2.295-3.946,4.029-4.278c1.406-0.248,2.729,0.124,3.969,1.116
				c1.24,0.992,2.148,3.019,2.729,6.076c0.412,2.151,0.744,4.175,0.992,6.076C636.047,256.921,636.252,258.367,636.418,259.359z
				 M658.861,263.947c-0.742,0.496-2.832,1.116-6.262,1.86c-3.432,0.744-6.717,0.744-9.857,0c-2.314-0.578-4.217-1.529-5.703-2.852
				c0.824,5.871,2.666,9.9,5.518,12.09c2.852,2.191,5.971,3.081,9.361,2.666c2.148-0.248,4.092-0.661,5.828-1.24
				c0.412-1.984,0.764-4.03,1.055-6.138C659.09,268.225,659.109,266.098,658.861,263.947z M701.395,282.671
				c4.959-0.825,9.133-1.116,12.523-0.868c2.232,0.167,4.029,0.62,5.395,1.364c1.363,0.744,2.004,1.612,1.922,2.604
				c-0.084,1.407-1.115,2.46-3.1,3.162c-1.984,0.703-4.424,1.054-7.316,1.054c-1.324,0-2.832-0.103-4.525-0.31
				c-1.695-0.205-3.121-0.391-4.279-0.558c0.248,5.291-0.123,11.036-1.115,17.236c-0.744,4.547-2.254,7.73-4.525,9.548
				c-2.275,1.819-4.818,2.275-7.627,1.364c-2.646-0.826-4.754-2.562-6.324-5.208c-1.57-2.645-2.107-5.91-1.611-9.796
				c1.156-8.762,1.652-16.264,1.488-22.506c-0.168-6.241-1.16-12.791-2.977-19.654c-0.992-3.637-1.324-6.095-0.992-7.378
				c0.33-1.281,1.033-2.087,2.107-2.418c1.322-0.413,2.77-0.206,4.34,0.62c1.57,0.828,3.307,2.48,5.209,4.96
				C696.186,264.154,699.988,273.083,701.395,282.671z"/>
			<path fill="#10BA00" d="M805.801,306.231c0.908,1.24,0.867,2.625-0.125,4.154c-0.992,1.531-3.1,3.081-6.324,4.65
				c-9.176,4.382-20.025,6.676-32.549,6.882c-12.523,0.208-22.426-1.426-29.699-4.898c-3.887-1.901-6.51-3.906-7.873-6.014
				s-1.551-4.03-0.559-5.766c1.074-1.9,3.08-3.017,6.014-3.348c2.934-0.33,7.047,0.248,12.338,1.736
				c3.143,0.911,6.283,1.655,9.426,2.232c-0.416-0.744-1.076-2.623-1.984-5.642c-0.91-3.017-1.654-6.262-2.232-9.734
				c-0.332-1.9-0.393-3.491-0.186-4.774c0.205-1.281,0.639-2.087,1.301-2.418c1.488-0.744,3.266-0.454,5.332,0.868
				c2.066,1.323,3.721,3.143,4.961,5.456c1.24,2.315,2.127,4.755,2.666,7.316c0.537,2.563,0.807,5.25,0.807,8.06
				c0,0.827-0.043,1.571-0.125,2.232c8.762,0.744,17.4,0.167,25.916-1.736c3.721-0.825,6.572-1.197,8.557-1.116
				C803.445,304.454,804.891,305.074,805.801,306.231z M750.496,264.691c-0.084-5.537,1.57-9.734,4.961-12.586
				c3.389-2.852,7.314-4.319,11.779-4.402c3.801-0.082,7.336,1.283,10.602,4.092c3.266,2.812,4.775,7.111,4.527,12.896
				c-0.168,3.887-1.635,7.13-4.402,9.734c-2.771,2.604-5.934,4.113-9.486,4.526c-4.547,0.496-8.66-0.475-12.338-2.914
				C752.459,273.6,750.578,269.817,750.496,264.691z M758.805,263.079c0.082,2.48,0.867,4.237,2.355,5.27
				c1.488,1.035,3.018,1.509,4.588,1.426c2.232-0.082,4.01-0.785,5.332-2.108c1.322-1.321,2.025-2.976,2.107-4.96
				c0.082-2.48-0.619-4.34-2.107-5.58c-1.488-1.24-2.977-1.817-4.463-1.736c-2.564,0.167-4.527,1.013-5.891,2.542
				C759.363,259.463,758.721,261.178,758.805,263.079z M777.281,305.735c-1.076-0.081-1.779-0.639-2.109-1.674
				c-0.33-1.033-0.371-2.666-0.123-4.898c0.328-2.149,0.537-4.877,0.619-8.184c0.082-3.389,0.516-5.642,1.303-6.758
				c0.785-1.116,1.631-1.674,2.541-1.674c1.322,0,2.336,0.58,3.039,1.736c0.701,1.158,1.135,2.646,1.301,4.464
				c0.166,1.654,0.207,3.472,0.125,5.456c-0.084,1.984-0.373,3.968-0.869,5.952c-0.494,2.067-1.363,3.534-2.604,4.402
				C779.264,305.425,778.189,305.818,777.281,305.735z"/>
			<path fill="#10BA00" d="M500.764,426.23c0.908,1.24,0.868,2.626-0.124,4.154c-0.992,1.531-3.1,3.081-6.324,4.65
				c-9.176,4.383-20.026,6.676-32.55,6.882c-12.524,0.208-22.424-1.426-29.698-4.897c-3.887-1.901-6.51-3.906-7.874-6.015
				c-1.364-2.108-1.55-4.03-0.558-5.767c1.073-1.9,3.079-3.016,6.014-3.348c2.933-0.329,7.046,0.248,12.338,1.736
				c5.952,1.654,11.861,2.812,17.732,3.473c0.082-1.157,0.082-2.376,0-3.658c-0.083-1.281-0.248-3.079-0.496-5.395
				c-0.167-1.569,0-2.83,0.496-3.781c0.496-0.95,1.364-1.508,2.604-1.675c1.24-0.165,2.334,0.146,3.286,0.931
				c0.949,0.786,1.755,2.129,2.418,4.029c1.157,3.308,1.777,6.655,1.86,10.045c5.869-0.082,11.861-0.785,17.98-2.109
				c3.72-0.824,6.572-1.197,8.556-1.115C498.408,424.454,499.853,425.074,500.764,426.23z M450.668,382.955
				c2.728-0.082,6.51-0.041,11.346,0.124c4.836,0.167,9.071,0.29,12.71,0.372c-0.083-2.81-0.331-5.621-0.744-8.432
				c-0.415-3.141-0.434-5.373-0.062-6.697c0.372-1.32,1.178-2.064,2.418-2.231c2.148-0.248,4.049,0.786,5.704,3.101
				c1.653,2.314,2.645,5.787,2.976,10.416c0.33,5.207,0.062,9.9-0.806,14.074c-0.868,4.175-1.922,7.254-3.162,9.237
				c-1.571,2.479-3.122,3.804-4.65,3.968c-1.531,0.167-2.625-0.123-3.286-0.867c-4.631,3.307-9.982,4.691-16.058,4.153
				c-6.076-0.536-10.974-2.831-14.694-6.882c-2.647-2.893-4.485-6.84-5.518-11.842c-1.035-5.001-1.137-10.188-0.31-15.563
				c0.661-4.464,1.755-7.75,3.286-9.857c1.529-2.108,3.575-2.914,6.138-2.418c1.817,0.331,3.182,1.633,4.092,3.906
				c0.909,2.273,1.157,6.18,0.744,11.717C450.708,380.559,450.668,381.799,450.668,382.955z M474.724,388.535
				c-3.639,0.662-7.668,1.137-12.09,1.426c-4.423,0.291-8.289,0.104-11.594-0.559c0.165,1.572,0.785,3.453,1.86,5.643
				c1.073,2.191,2.645,3.782,4.712,4.773c2.396,1.159,5.208,1.386,8.432,0.683c3.224-0.701,5.745-1.755,7.564-3.162
				C474.352,395.355,474.724,392.422,474.724,388.535z"/>
			<path fill="#10BA00" d="M522.092,384.07c3.472,0.332,6.84,0.435,10.105,0.311s6.635-0.391,10.106-0.806
				c4.05-0.413,7.108-0.516,9.176-0.31c2.065,0.207,3.265,0.848,3.597,1.922c0.328,1.074-0.248,2.314-1.736,3.719
				c-1.488,1.407-4.176,2.647-8.061,3.721c-6.035,1.654-11.842,2.502-17.422,2.542c-5.58,0.042-10.148-0.847-13.701-2.666
				c-2.564-1.321-4.279-2.747-5.146-4.278c-0.868-1.528-0.93-2.789-0.186-3.781c0.66-0.826,1.735-1.219,3.223-1.178
				C513.535,383.308,516.884,383.575,522.092,384.07z M537.84,398.951c0.329,0.166,0.577,0.371,0.744,0.619
				c0.992,0,2.045,0.125,3.162,0.373c1.115,0.248,2.17,0.619,3.162,1.115c2.064,1.076,3.637,2.604,4.711,4.588
				c1.074,1.984,1.57,4.217,1.488,6.696c-0.083,3.72-1.323,6.862-3.72,9.425c-2.399,2.563-5.456,3.844-9.177,3.844
				c-4.711,0.083-8.432-1.197-11.159-3.844c-2.728-2.646-4.052-5.993-3.968-10.045c0.081-2.976,0.784-5.58,2.107-7.812
				c1.321-2.231,3.513-3.885,6.572-4.96c1.156-0.413,2.334-0.6,3.533-0.559C536.495,398.436,537.344,398.621,537.84,398.951z
				 M538.955,380.971c-1.158,0.248-2.604,0.105-4.34-0.434c-1.736-0.537-3.266-1.631-4.588-3.286
				c-1.654-1.983-2.728-4.298-3.224-6.944c-0.496-2.645-0.663-5.455-0.496-8.432c0.165-2.48,0.763-4.731,1.798-6.758
				c1.033-2.025,2.666-2.707,4.898-2.047c1.404,0.496,2.623,1.488,3.658,2.977c1.032,1.488,1.715,2.895,2.045,4.217
				c0.496,1.902,0.992,4.051,1.488,6.447c0.496,2.398,0.909,4.672,1.24,6.82c0.412,2.563,0.434,4.383,0.063,5.455
				C541.125,380.063,540.277,380.723,538.955,380.971z M537.22,404.779c-0.663,0.083-1.757,0.558-3.286,1.426
				c-1.531,0.867-2.418,2.129-2.666,3.781c-0.248,1.736,0.144,3.225,1.178,4.465c1.033,1.24,2.666,1.859,4.898,1.859
				c1.404-0.081,2.582-0.66,3.533-1.735c0.95-1.073,1.384-2.397,1.303-3.968c-0.084-1.074-0.434-2.047-1.055-2.914
				c-0.619-0.868-1.426-1.551-2.418-2.047C538.129,405.398,537.633,405.11,537.22,404.779z M576.279,453.635
				c-0.826,0.248-1.818,0.496-2.975,0.744c-2.977,0.66-6.367,0.93-10.169,0.807c-3.804-0.125-6.614-1.014-8.433-2.666
				c-1.406-1.322-2.479-3.368-3.224-6.139c-0.744-2.769-1.159-6.055-1.239-9.857c-0.084-2.811,0.288-4.836,1.115-6.076
				c0.826-1.24,2.025-1.777,3.596-1.612c2.066,0.167,3.678,1.075,4.836,2.728c2.645-0.248,5.953-0.412,9.922-0.496
				c3.967-0.08,6.9,0.58,8.803,1.984c1.9,1.406,3.039,3.534,3.41,6.387c0.373,2.852,0.434,5.518,0.186,7.998
				c-0.248,2.479-0.744,4.153-1.488,5.021c-0.742,0.868-1.529,1.343-2.355,1.426C577.686,453.965,577.023,453.883,576.279,453.635z
				 M565.863,404.035c-2.728,0.166-5.167-0.144-7.316-0.93c-2.15-0.785-3.307-1.84-3.471-3.162
				c-0.084-0.826,0.288-1.674,1.115-2.543c0.826-0.867,2.562-1.507,5.208-1.922c2.479-0.412,4.855-0.682,7.13-0.806
				c2.273-0.124,4.32-0.187,6.139-0.187c-0.084-8.265-1.322-16.284-3.721-24.055c-0.662-2.232-1.033-4.031-1.115-5.395
				c-0.084-1.364,0.33-2.418,1.24-3.162c0.744-0.578,1.941-0.639,3.596-0.186c1.652,0.455,3.678,1.922,6.076,4.401
				c5.289,5.456,9.279,12.091,11.967,19.902c2.684,7.812,3.574,15.646,2.666,23.498c-0.828,6.862-2.4,11.574-4.713,14.136
				c-2.314,2.563-5.168,3.639-8.557,3.225c-3.391-0.413-5.703-1.86-6.943-4.341c-1.24-2.479-1.531-7.356-0.867-14.632
				c0.164-1.9,0.287-3.885,0.371-5.952C571.361,403.167,568.426,403.87,565.863,404.035z M561.399,437.268
				c0.081,1.654,0.165,3.328,0.248,5.021c0.081,1.695,0.496,3.038,1.24,4.029c0.661,0.911,1.86,1.469,3.597,1.675
				c1.736,0.207,4.215,0.062,7.439-0.435c-0.084-1.736-0.207-3.596-0.371-5.58c-0.168-1.983-0.787-3.348-1.861-4.092
				s-2.688-1.054-4.836-0.93C564.705,437.081,562.888,437.186,561.399,437.268z"/>
			<path fill="#10BA00" d="M620.67,420.402c7.605,2.48,14.961,3.184,22.072,2.108c7.109-1.073,12.4-2.231,15.871-3.472
				c2.645-0.908,4.527-1.156,5.643-0.744c1.115,0.414,1.84,0.992,2.17,1.736c0.496,1.24,0.248,2.625-0.744,4.154
				c-0.992,1.53-2.521,2.996-4.588,4.401c-7.605,5.044-15.623,8.06-24.057,9.052c-8.432,0.992-15.789-0.041-22.07-3.1
				c-3.143-1.488-5.479-3.574-7.006-6.262c-1.531-2.686-1.635-5.063-0.311-7.131c0.992-1.487,2.83-2.17,5.518-2.045
				C615.854,419.225,618.355,419.659,620.67,420.402z M633.938,373.406c4.217,0.248,7.584,1.842,10.107,4.775
				c2.52,2.935,3.904,6.18,4.152,9.733c0.248,4.052-0.805,7.585-3.162,10.603c-2.355,3.018-6.014,4.484-10.973,4.401
				c-3.557-0.081-6.82-1.302-9.797-3.658c-2.975-2.356-4.631-5.724-4.959-10.106c-0.332-3.967,0.887-7.645,3.658-11.035
				C625.732,374.73,629.391,373.159,633.938,373.406z M633.814,380.848c-2.068-0.166-3.68,0.495-4.836,1.983
				c-1.158,1.487-1.695,3.143-1.613,4.96c0.082,1.819,0.744,3.245,1.984,4.277c1.24,1.035,2.645,1.594,4.217,1.675
				c1.984,0.083,3.512-0.454,4.588-1.612c1.072-1.156,1.568-2.729,1.488-4.712c-0.084-1.487-0.664-2.914-1.736-4.278
				C636.83,381.777,635.467,381.014,633.814,380.848z M693.211,421.023c-0.332,4.463-1.758,8.617-4.279,12.461
				c-2.521,3.845-5.518,5.438-8.99,4.774c-2.811-0.495-5.002-2.231-6.572-5.208c-1.57-2.976-2.15-5.951-1.734-8.928
				c1.24-9.589,1.426-18.104,0.557-25.544c-0.867-7.44-2.541-14.509-5.021-21.204c-0.496-1.321-0.682-2.542-0.559-3.658
				c0.125-1.115,0.6-1.838,1.426-2.17c1.57-0.66,3.018-0.682,4.342-0.063c1.32,0.621,2.645,1.594,3.967,2.914
				c5.621,5.788,10.002,12.524,13.145,20.213C692.631,402.299,693.871,411.104,693.211,421.023z"/>
			<path fill="#10BA00" d="M784.1,420.527c0.248,0.992,0.414,2.17,0.496,3.533c0.082,1.364,0.082,2.666,0,3.906
				c-0.166,1.902-0.557,3.348-1.178,4.34c-0.619,0.992-1.385,1.531-2.293,1.612c-1.572,0.167-2.957-0.31-4.154-1.426
				c-1.199-1.116-1.922-2.624-2.17-4.526c-0.248-1.817-0.373-3.243-0.373-4.277c0-1.033,0.041-2.047,0.125-3.039
				c-12.07-0.744-21.742-2.645-29.016-5.703c-2.646-1.074-4.424-2.356-5.332-3.844c-0.912-1.488-1.158-3.018-0.744-4.588
				c0.412-1.488,1.467-2.48,3.162-2.977c1.693-0.496,4.111-0.289,7.254,0.62c7.852,2.15,16.346,3.121,25.482,2.913
				c9.133-0.205,16.758-1.59,22.877-4.153c3.721-1.487,7.418-2.148,11.098-1.983c3.678,0.166,6.096,0.991,7.254,2.479
				c1.406,1.902,1.322,4.011-0.248,6.323c-1.57,2.316-4.631,4.3-9.176,5.953C799.807,418.419,792.117,420.031,784.1,420.527z
				 M768.229,393.743c-1.324,2.646-3.08,4.485-5.27,5.518c-2.191,1.034-4.238,1.179-6.139,0.435
				c-3.059-1.24-4.836-3.762-5.332-7.564c-0.496-3.801-0.123-7.645,1.117-11.531c1.404-4.381,3.348-8.433,5.826-12.152
				c2.48-3.721,4.918-6.82,7.316-9.301c2.232-2.231,3.906-3.574,5.023-4.029c1.115-0.453,2.17-0.6,3.16-0.434
				c1.24,0.248,2.109,1.053,2.605,2.418c0.496,1.363,0.66,2.956,0.496,4.773c-0.248,2.315-0.621,4.32-1.117,6.014
				c-0.496,1.695-1.199,3.824-2.107,6.387c-0.828,2.398-1.736,5.787-2.729,10.168C770.088,388.826,769.137,391.926,768.229,393.743z
				 M760.045,440.119c0-1.322,0.537-2.335,1.611-3.038c1.074-0.702,2.811-1.136,5.209-1.302c2.727-0.165,6.881,0.062,12.461,0.682
				s10.188,1.221,13.826,1.798c2.645,0.415,4.443,0.973,5.395,1.675c0.949,0.703,1.26,1.757,0.93,3.162
				c-0.332,1.322-1.344,2.355-3.037,3.1c-1.695,0.744-3.742,1.199-6.139,1.363c0.082,3.969,0,7.398-0.248,10.293
				c0.908,0,1.9-0.043,2.977-0.125c2.727-0.166,4.525,0,5.393,0.496c0.869,0.496,1.26,1.24,1.178,2.232
				c-0.082,1.156-1.074,2.148-2.975,2.977c-1.902,0.824-4.383,1.445-7.441,1.859c-3.885,0.496-7.502,0.723-10.85,0.682
				c-3.348-0.043-6.385-0.311-9.113-0.807c-2.729-0.494-4.773-1.238-6.139-2.23c-1.363-0.992-2.045-2.109-2.045-3.348
				c0-1.24,0.701-2.09,2.107-2.543c1.404-0.455,4.133-0.477,8.184-0.063c-0.578-0.496-0.973-2.088-1.178-4.773
				c-0.207-2.686-0.229-4.691-0.063-6.014c-2.975-0.33-5.393-1.055-7.254-2.17C760.975,442.909,760.045,441.607,760.045,440.119z
				 M783.357,447.436c-2.4-0.082-4.961-0.248-7.689-0.496c0.166,0.662,0.289,1.674,0.373,3.037c0.08,1.364,0.08,2.5,0,3.41
				c-0.248,1.984-0.91,3.266-1.984,3.844c3.473,0.33,6.572,0.537,9.301,0.621C782.861,454.543,782.861,451.074,783.357,447.436z
				 M775.297,378.738c0-0.824,0.311-1.466,0.93-1.922c0.619-0.453,1.799-0.598,3.533-0.434c2.563,0.248,5.477,0.849,8.742,1.799
				c3.266,0.951,5.891,1.922,7.875,2.914c2.232,1.158,3.738,2.293,4.525,3.409c0.785,1.116,1.055,2.13,0.807,3.038
				c-0.168,0.744-0.744,1.345-1.736,1.798c-0.992,0.456-2.563,0.558-4.713,0.31c-1.902-0.248-4.195-0.824-6.881-1.735
				c-2.688-0.909-5.189-2.024-7.502-3.349c-1.654-0.908-2.998-1.879-4.031-2.914C775.813,380.62,775.297,379.649,775.297,378.738z"
				/>
		</g>
	</g>
</g>
</svg>
