<svg xmlns="http://www.w3.org/2000/svg" viewBox="0 0 378.37 378.37"><defs><style>.cls-1{fill:#669b41;}.cls-2{fill:#fefefe;fill-rule:evenodd;}</style></defs><g id="Layer_2" data-name="Layer 2"><g id="Layer_1-2" data-name="Layer 1"><circle class="cls-1" cx="189.19" cy="189.19" r="189.19" transform="translate(-78.36 189.19) rotate(-45)"/><path class="cls-2" d="M189.22,264.53q-49.51,0-99,0c-8.83,0-14.77-6-14.77-14.85q0-44.81,0-89.62c0-7.61.53-7.95,7.14-4.41,31,16.54,61.94,33,92.84,49.66,9.3,5,18.23,5,27.53,0q46.19-24.87,92.51-49.48c1-.53,2-1.11,3-1.57,3.26-1.45,4.49-.77,4.5,2.7q0,47.44,0,94.89c0,6.57-6.9,12.64-13.92,12.65Q239.11,264.55,189.22,264.53Z"/><path class="cls-2" d="M189.16,114.6q52.72,0,105.45,0c2.82,0,6.22-.6,7.53,2.76s-.94,6-3,8.37A18.26,18.26,0,0,1,294,129.5q-45.84,25.16-91.66,50.32c-8.71,4.78-17.49,4.81-26.2,0q-45.84-25.14-91.66-50.31c-3.39-1.86-6.29-4.18-7.91-7.76-1.78-4-.15-6.67,4.17-7.12,1.24-.12,2.51-.06,3.76-.06Z"/></g></g></svg>