<?xml version="1.0" encoding="utf-8"?>
<!-- Generator: Adobe Illustrator 16.0.0, SVG Export Plug-In . SVG Version: 6.00 Build 0)  -->
<!DOCTYPE svg PUBLIC "-//W3C//DTD SVG 1.1//EN" "http://www.w3.org/Graphics/SVG/1.1/DTD/svg11.dtd">
<svg version="1.1" id="Layer_1" xmlns="http://www.w3.org/2000/svg" xmlns:xlink="http://www.w3.org/1999/xlink" x="0px" y="0px"
	 width="500px" height="500px" viewBox="0 0 500 500" enable-background="new 0 0 500 500" xml:space="preserve">
<path fill="#FFE264" d="M456.49,188.157c-0.094-0.088-5.941-6.157-22.811-7.157c-0.002,0-0.003,0-0.005,0L319.06,168.885
	L273.125,61.859c-0.004-0.009-0.008-0.017-0.012-0.026c-5.074-11.82-10.2-15.511-10.921-15.987C259.291,44.297,255.336,43,250.15,43
	H250c-3.965,0-7.216,0.752-9.826,1.79c-0.102,0.095-0.358,0.209-0.794,0.343c-0.825,0.365-1.593,0.75-2.278,1.151
	c-4.175,3.018-7.888,10.54-9.424,13.963l-0.747,1.738c0,0.001-0.003,0.009-0.003,0.009L181.09,168.61L68.346,180.427
	c-17.621,1.852-22.999,5.971-23.319,6.228C28.8,201.05,42.19,217.63,42.19,217.63l94.94,84.43l-26.628,118.324
	c-0.529,2.801-1.145,7.819-0.092,12.827c6.811,23.993,31.39,14.369,31.39,14.369l108.28-64.021l108.27,64.021
	c0,0,23.321,9.129,30.824-12.576c0,0,0.001-0.003,0.002-0.003c0.25-0.724,0.481-1.482,0.695-2.275
	c0.54-2.489,0.975-7.014-0.498-13.563L363.02,302.06l94.94-84.353C457.96,217.707,470.563,202.223,456.49,188.157z"/>
</svg>
