<?xml version="1.0" encoding="utf-8"?>
<!-- Generator: Adobe Illustrator 16.0.0, SVG Export Plug-In . SVG Version: 6.00 Build 0)  -->
<!DOCTYPE svg PUBLIC "-//W3C//DTD SVG 1.1//EN" "http://www.w3.org/Graphics/SVG/1.1/DTD/svg11.dtd">
<svg version="1.1" id="Layer_1" xmlns="http://www.w3.org/2000/svg" xmlns:xlink="http://www.w3.org/1999/xlink" x="0px" y="0px"
	 width="500px" height="500px" viewBox="0 0 500 500" enable-background="new 0 0 500 500" xml:space="preserve">
<path fill="none" stroke="#FFE264" stroke-width="15" stroke-miterlimit="10" d="M239.281,47.344
	c-4.175,3.018-9.068,11.636-10.604,15.059l-1.196,2.772c0,0,1.196-2.772,1.196-2.772l-46.587,107.96l-112.744,10.94
	c-17.621,1.852-22.999,5.533-23.319,5.79c-16.228,14.396-2.837,30.756-2.837,30.756l94.94,84.32l-26.628,118.27
	c-0.529,2.801-1.145,7.792-0.092,12.8c6.811,23.993,31.39,14.355,31.39,14.355l108.28-64.027l108.27,64.014
	c0,0,23.321,9.129,30.824-12.576c0,0,0.001-0.003,0.002-0.003c0.25-0.724,0.481-1.482,0.695-2.275
	c0.54-2.489,0.975-7.014-0.498-13.563L364.02,302.06l94.94-83.478c0,0,12.603-12.609-1.47-26.675
	c-0.094-0.088-5.941-2.407-22.811-3.407c-0.002,0-0.003,0-0.005,0L320.06,172.635L274.113,63.271c-0.004-0.009,0.004,0.009,0,0
	c-5.074-11.82-10.2-14.48-10.921-14.956c-2.901-1.548-6.933-3.346-12.118-3.346l0,0c-4.824,0-8.105,0.688-10.695,1.914"/>
<path fill="none" stroke="#FFE264" stroke-width="15" stroke-miterlimit="10" d="M241.939,46.105c0,0-3.185,1.209-4.156,2.521"/>
</svg>
